PathFileType	4	(X/Y/Z)	10_2_55_p1_0-382_filt_butterworth.trc
DataRate	CameraRate	NumFrames	NumMarkers	Units	OrigDataRate	OrigDataStartFrame	OrigNumFrames
60.0	60.0	5	27	m	60.0	143	382
Frame#	Time	RHip			RKnee			RAnkle			RBigToe			RSmallToe			RHeel			LHip			LKnee			LAnkle			LBigToe			LSmallToe			LHeel			Neck			Head			Nose			RShoulder			RElbow			RWrist			RThumb			RIndex			RPinky			LShoulder			LElbow			LWrist			LThumb			LIndex			LPinky			
		X1	Y1	Z1	X2	Y2	Z2	X3	Y3	Z3	X4	Y4	Z4	X5	Y5	Z5	X6	Y6	Z6	X7	Y7	Z7	X8	Y8	Z8	X9	Y9	Z9	X10	Y10	Z10	X11	Y11	Z11	X12	Y12	Z12	X13	Y13	Z13	X14	Y14	Z14	X15	Y15	Z15	X16	Y16	Z16	X17	Y17	Z17	X18	Y18	Z18	X19	Y19	Z19	X20	Y20	Z20	X21	Y21	Z21	X22	Y22	Z22	X23	Y23	Z23	X24	Y24	Z24	X25	Y25	Z25	X26	Y26	Z26	X27	Y27	Z27	
143	2.3833333333333333	0.31564004327923956	0.5303658751158402	0.9681624396757165	0.3189656575060932	0.6533149130766516	1.3904415556367633	0.31817081041885187	0.8007285574010525	1.776060052069676	0.27549845103477305	0.6032862579040863	1.8614894509231472	0.3460641220437785	0.6454068754265714	1.852137320479072	0.28289450976571556	0.9024782823100708	1.8532942276447981	0.11877311286461321	0.5412098558685873	0.9581490364034274	0.09277015643019612	0.6376889180009624	1.3707913102908504	0.0989814516926757	0.7590601834180877	1.775990566636244	0.10760998022637731	0.6182772835924036	1.8754012928789314	0.05678347122769899	0.6386704807761372	1.8475077011534968	0.12327538119323549	0.8431793865701761	1.829779808465144	0.22380670372456044	0.39864971788844883	0.4592294615574685	0.1303696175021877	0.2919352526463943	0.2304662327599757	0.13007660244722163	0.31753528168176787	0.3965628417918213	0.37946466653891975	0.3982129899351277	0.4948114281618597	0.5389019871656671	0.3479684232648246	0.7088549682194946	0.4918895361353574	0.26078636677711586	0.5377814218265086	0.4762153669867267	0.3545245765411363	0.416330456149006	0.508389822287936	0.3316606062360453	0.3889340507990936	0.5328020840657643	0.28833876975643485	0.4140463991463106	0.10147088884190678	0.5343009732182713	0.5029107878682122	-0.03649542117206765	0.6441231702713265	0.7092848090560204	-0.21371426428448392	0.747751419668623	0.8605689846684597	-0.3085924064952045	0.815846862305868	0.9080716116419847	-0.3231519702001055	0.7850145137395641	0.9320901154346461	-0.2717064528412054	0.7718223680405818	0.9724770044570411
144	2.4	0.3142857830969559	0.5307881233855308	0.9701566439683788	0.32041213741440056	0.6540081547848449	1.3906066420323486	0.3182125743063486	0.8008160210021747	1.776063556697654	0.2757057209175449	0.6030531842880007	1.8601342812064159	0.3460175266735226	0.6455404271022442	1.8500473737907441	0.28365162216739703	0.9032304454663211	1.8508271532847744	0.11836211718794622	0.5444384281511139	0.9594902797956406	0.0913208838273262	0.6407336109270285	1.371819971349061	0.10026806131125482	0.7589984207423017	1.775599696838808	0.10540075737219515	0.622137511112913	1.877111172321508	0.05613240601217835	0.6385582741590443	1.8460135624160223	0.12319601557615098	0.8421909822491533	1.82901275729098	0.22302235647016277	0.4000704210183158	0.459237308931833	0.13010254700080004	0.2917945809009354	0.23058855728817879	0.12854085822407194	0.3141286900864797	0.3970105331510523	0.37837768009654976	0.3963684409755725	0.49439997246740053	0.5415712544403204	0.3492229266922958	0.7069145657093329	0.4895402455971939	0.26730655044954166	0.5428093247790323	0.47661981018257155	0.39494885995197015	0.4218404180737786	0.5078711267601872	0.3487821234768558	0.3938063155275835	0.521760598103457	0.29112727810598144	0.4217893351988614	0.10115798798904532	0.537068794621745	0.5036192298773708	-0.023842349273511476	0.6392822887358021	0.7170720550384367	-0.19175758587996355	0.7454018230244167	0.8719355264994846	-0.27972378399147035	0.8331489529832041	0.9332691062368396	-0.29365779475282766	0.7950088226900014	0.9558216909706708	-0.24700242202187564	0.7886673525453499	0.9865550862803761
145	2.4166666666666665	0.3122883917660781	0.5307979043493074	0.9727860025938362	0.3215283535824695	0.6545892782052323	1.3907801127995643	0.31819347238648826	0.8010737027752882	1.7760820644778268	0.2758649878441184	0.6058124380593617	1.8597347721894635	0.3460675962813669	0.6459161138517303	1.848087743579037	0.2842781883953948	0.9045966011487605	1.8490952778900231	0.11774522193621785	0.5461281385480246	0.9608456454149235	0.08953364747672497	0.6456668964999017	1.3743243505146672	0.10143685916015772	0.7593114031761723	1.7757286372916126	0.10403348839140458	0.6289632638839151	1.8809329880028067	0.05491426255487679	0.6381763340017923	1.8448492655549606	0.12309030510960203	0.8409737803663636	1.827488064092912	0.22248076486069912	0.40129321065539625	0.4596968648427193	0.12886461922956619	0.29166071811022676	0.23062217180106948	0.1280747068971896	0.3125868924543034	0.39732856774713743	0.3762844861403024	0.39483624446854343	0.4930655365530531	0.5440396462768329	0.3523396616480044	0.7049999947818651	0.4866099618524823	0.2733347655888993	0.5482060681013124	0.4781321939292347	0.42294587969511377	0.4225925480994509	0.5002041885570969	0.3595121843365008	0.4012343563110934	0.5053361307461436	0.28605709579857014	0.4325963739740749	0.09956363346886868	0.5401827243414938	0.503820008939751	-0.011786636727255913	0.6325660057992194	0.7235121930639221	-0.1704686984302945	0.7511002353085886	0.886951558507662	-0.24827229296078077	0.841965453046611	0.95416058322215	-0.2647390005210597	0.810804582836465	0.9752771002223424	-0.22207927136164718	0.7984091638358601	0.9985007514147353
146	2.433333333333333	0.310552049467565	0.5304522768087162	0.9747151382039356	0.3219834959707448	0.6548498489793441	1.3908745758747603	0.31809791427218415	0.8014513997731008	1.7761558658887417	0.2761038484652308	0.6089034579631494	1.860723050299921	0.3462505569309037	0.6476489417080152	1.847538789691326	0.28463849549322584	0.9060483910965751	1.8487508544003945	0.11744528475984209	0.5465627393606414	0.9616582750888855	0.08823564273634597	0.6498206486555853	1.3769474061496938	0.10203282726402094	0.7600581980963541	1.7757963720054748	0.10375015569225243	0.6343340063452859	1.8841724936149737	0.053436612925154114	0.6377096882148161	1.8443010052301902	0.12301510933778137	0.8400993061723909	1.8256446656497392	0.22216107823590545	0.40194684364812727	0.4601522545611124	0.12634820206553762	0.29160122231586977	0.23053649052537134	0.12819896382065904	0.3122188792660023	0.3975020987530897	0.3733395263447022	0.3929970427748644	0.4917931181389573	0.546580782900886	0.3566489877747161	0.7031315897944745	0.4836825080496557	0.2774688547008136	0.5522806231546629	0.47935094196226224	0.4380371404304876	0.4173244135232347	0.48650229861281535	0.3660579073646136	0.408034185564903	0.4857346548686031	0.28405089681334406	0.4463803671778195	0.09747350521973405	0.544432757246055	0.5039884912717756	-0.002390804028884506	0.6282709170999938	0.7297181234378559	-0.14921489893052065	0.7653630540591416	0.9050942185739959	-0.21386870897791468	0.8443406414236141	0.970092219893685	-0.2382537530194066	0.8330009969289499	0.9955013035712996	-0.1954509706849653	0.8073874836431496	1.0124149696390352
147	2.45	0.3097032429268655	0.5299551104675093	0.9754688873440748	0.3220166201009272	0.6548483621310066	1.3909059702228872	0.3181009542602212	0.8013858779134672	1.7762831988653667	0.2763869251283616	0.6104595845132784	1.8622090021985245	0.34669087250914526	0.6515166974399299	1.8491639337865022	0.28483696442598994	0.9066785096322876	1.8492568771893028	0.11741004935297243	0.5466345646783429	0.9618737237562668	0.08771472626878288	0.6515270155947742	1.3784605242147043	0.10215984423090085	0.7608574581762403	1.7754462615722844	0.10409860551006912	0.6364496846304458	1.8855143440559716	0.0523067276848949	0.6373821295392589	1.8441425647074194	0.12300381680632058	0.8398354737359855	1.8244370721007583	0.22169811405348777	0.4027988119844781	0.46006941474128693	0.12307044622018956	0.29147275392455585	0.2305918257305945	0.12788662319738175	0.3122968594697331	0.3975171535857524	0.3706505193325575	0.3909834126362342	0.4925731391282364	0.5496602301143758	0.36152137117595107	0.7015047616845131	0.4812025817816577	0.27925426083043225	0.5538230747651554	0.47736727867128614	0.44199769958829355	0.4087775087728824	0.469056463022765	0.3688551079303356	0.4112707113767382	0.46466881333782384	0.29185957465408785	0.463052614770594	0.0959819254709454	0.5481817664803783	0.5042558153972782	0.004455286752878205	0.6307078068591363	0.7366215030857891	-0.12680738510512757	0.7781805806877242	0.9229494113364413	-0.1771438781911752	0.8549096652693937	0.9851426456490293	-0.21027733029045742	0.8615474084248929	1.0199437978013248	-0.16926407835222623	0.8339088593648363	1.030651245275642
